# xmcd CD database file
#
# Track frame offsets:
#	150
#	20796
#	39429
#	57658
#	71324
#	86863
#	98665
#	112355
#	126726
#	146600
#	160821
#	179477
#	198050
#	213590
#	232711
#	251568
#	265149
#	280553
#	301550
#	319659
#
# Disc length: 4717 seconds
#
# Revision: 1
# Processed by: cddbd v1.5.2PL0 Copyright (c) Steve Scherf et al.
# Submitted via: CDex 1.51
#
DISCID=20126b14
DTITLE=Mando Diao - The Malevolence Of Mando Diao [CD 2/2)
DYEAR=2009
DGENRE=Indie
TTITLE0=The Quarry
TTITLE1=How We Walk
TTITLE2=Searching For Owls
TTITLE3=San Francisco Bay
TTITLE4=Your Lover's Nerve
TTITLE5=Moonshine Fever
TTITLE6=India Love
TTITLE7=For The Tears
TTITLE8=Waves Of Fortune
TTITLE9=Deep Blue Sea
TTITLE10=She's So
TTITLE11=Jeanette
TTITLE12=Long Before Rock'N'Roll (Live)
TTITLE13=We're Hit
TTITLE14=Chi
TTITLE15=A Hard Day's Night
TTITLE16=Little Boy Jr (Live)
TTITLE17=Paralyzed (Live)
TTITLE18=Sheepdog (Live)
TTITLE19=Driving Around
EXTD=YEAR: 2009
EXTT0=
EXTT1=
EXTT2=
EXTT3=
EXTT4=
EXTT5=
EXTT6=
EXTT7=
EXTT8=
EXTT9=
EXTT10=
EXTT11=
EXTT12=
EXTT13=
EXTT14=
EXTT15=
EXTT16=
EXTT17=
EXTT18=
EXTT19=
PLAYORDER=
